<mxfile host="app.diagrams.net" modified="2024-01-23T00:48:01.186Z" agent="Mozilla/5.0 (Windows NT 10.0; Win64; x64) AppleWebKit/537.36 (KHTML, like Gecko) Chrome/120.0.0.0 Safari/537.36" etag="8jzrKqRGNR3YwgFWlzo0" version="22.1.21" type="device">
  <diagram name="Pagina-1" id="Fiza8VqC5OtZRZSapZYp">
    <mxGraphModel dx="1050" dy="625" grid="1" gridSize="10" guides="1" tooltips="1" connect="1" arrows="1" fold="1" page="1" pageScale="1" pageWidth="827" pageHeight="1169" math="0" shadow="0">
      <root>
        <mxCell id="0" />
        <mxCell id="1" parent="0" />
        <mxCell id="XuaTuY3ysy17-nEJgxoF-1" value="&lt;b&gt;Fridge Truck Driver&lt;/b&gt;" style="shape=umlActor;verticalLabelPosition=bottom;verticalAlign=top;html=1;outlineConnect=0;" parent="1" vertex="1">
          <mxGeometry x="170" y="300" width="30" height="60" as="geometry" />
        </mxCell>
        <mxCell id="XuaTuY3ysy17-nEJgxoF-2" value="&lt;b&gt;Transport Trolley&lt;/b&gt;" style="shape=umlActor;verticalLabelPosition=bottom;verticalAlign=top;html=1;outlineConnect=0;gradientColor=none;fillColor=#4066FF;" parent="1" vertex="1">
          <mxGeometry x="630" y="190" width="30" height="60" as="geometry" />
        </mxCell>
        <mxCell id="XuaTuY3ysy17-nEJgxoF-3" value="&lt;b&gt;Alarm Device&lt;/b&gt;" style="shape=umlActor;verticalLabelPosition=bottom;verticalAlign=top;html=1;outlineConnect=0;fillColor=#4066FF;" parent="1" vertex="1">
          <mxGeometry x="170" y="110" width="30" height="60" as="geometry" />
        </mxCell>
        <mxCell id="XuaTuY3ysy17-nEJgxoF-5" value="&lt;b&gt;ServiceStatusGUI&lt;/b&gt;" style="shape=umlActor;verticalLabelPosition=bottom;verticalAlign=top;html=1;outlineConnect=0;gradientColor=#4066FF;gradientDirection=south;fillColor=#4066FF;" parent="1" vertex="1">
          <mxGeometry x="630" y="80" width="30" height="60" as="geometry" />
        </mxCell>
        <mxCell id="XuaTuY3ysy17-nEJgxoF-7" value="&lt;b&gt;ColdStorageService&lt;/b&gt;" style="shape=umlFrame;whiteSpace=wrap;html=1;pointerEvents=0;width=130;height=30;fillColor=#66B2FF;swimlaneFillColor=#E0FBFF;gradientColor=none;" parent="1" vertex="1">
          <mxGeometry x="250" y="40" width="330" height="450" as="geometry" />
        </mxCell>
        <mxCell id="XuaTuY3ysy17-nEJgxoF-11" value="Deposit Action" style="ellipse;whiteSpace=wrap;html=1;fillColor=#99CCFF;" parent="1" vertex="1">
          <mxGeometry x="415" y="140" width="110" height="50" as="geometry" />
        </mxCell>
        <mxCell id="XuaTuY3ysy17-nEJgxoF-12" value="Check Cold Room wheight" style="ellipse;whiteSpace=wrap;html=1;fillColor=#99CCFF;" parent="1" vertex="1">
          <mxGeometry x="354" y="410" width="120" height="60" as="geometry" />
        </mxCell>
        <mxCell id="XuaTuY3ysy17-nEJgxoF-13" value="Deposit Request" style="ellipse;whiteSpace=wrap;html=1;fillColor=#99CCFF;" parent="1" vertex="1">
          <mxGeometry x="284" y="305" width="106" height="50" as="geometry" />
        </mxCell>
        <mxCell id="XuaTuY3ysy17-nEJgxoF-14" value="&lt;b&gt;FridgeService&lt;/b&gt;" style="shape=umlActor;verticalLabelPosition=bottom;verticalAlign=top;html=1;fillColor=#4066FF;" parent="1" vertex="1">
          <mxGeometry x="630" y="300" width="30" height="60" as="geometry" />
        </mxCell>
        <mxCell id="XuaTuY3ysy17-nEJgxoF-19" value="" style="endArrow=none;html=1;rounded=0;exitX=0.5;exitY=0.5;exitDx=0;exitDy=0;exitPerimeter=0;entryX=0;entryY=0.5;entryDx=0;entryDy=0;" parent="1" source="XuaTuY3ysy17-nEJgxoF-1" target="XuaTuY3ysy17-nEJgxoF-12" edge="1">
          <mxGeometry width="50" height="50" relative="1" as="geometry">
            <mxPoint x="390" y="350" as="sourcePoint" />
            <mxPoint x="440" y="300" as="targetPoint" />
          </mxGeometry>
        </mxCell>
        <mxCell id="XuaTuY3ysy17-nEJgxoF-21" value="" style="endArrow=none;html=1;rounded=0;exitX=1;exitY=0;exitDx=0;exitDy=0;entryX=0.5;entryY=0.5;entryDx=0;entryDy=0;entryPerimeter=0;" parent="1" source="XuaTuY3ysy17-nEJgxoF-12" target="XuaTuY3ysy17-nEJgxoF-14" edge="1">
          <mxGeometry width="50" height="50" relative="1" as="geometry">
            <mxPoint x="484" y="450" as="sourcePoint" />
            <mxPoint x="665" y="450" as="targetPoint" />
          </mxGeometry>
        </mxCell>
        <mxCell id="XuaTuY3ysy17-nEJgxoF-22" value="" style="endArrow=none;html=1;rounded=0;exitX=1;exitY=0.5;exitDx=0;exitDy=0;entryX=0.5;entryY=0.5;entryDx=0;entryDy=0;entryPerimeter=0;" parent="1" source="XuaTuY3ysy17-nEJgxoF-13" target="XuaTuY3ysy17-nEJgxoF-14" edge="1">
          <mxGeometry width="50" height="50" relative="1" as="geometry">
            <mxPoint x="466" y="429" as="sourcePoint" />
            <mxPoint x="650" y="340" as="targetPoint" />
          </mxGeometry>
        </mxCell>
        <mxCell id="XuaTuY3ysy17-nEJgxoF-23" value="" style="endArrow=none;html=1;rounded=0;exitX=0.5;exitY=0.5;exitDx=0;exitDy=0;exitPerimeter=0;entryX=0;entryY=0.5;entryDx=0;entryDy=0;" parent="1" source="XuaTuY3ysy17-nEJgxoF-1" target="XuaTuY3ysy17-nEJgxoF-13" edge="1">
          <mxGeometry width="50" height="50" relative="1" as="geometry">
            <mxPoint x="476" y="439" as="sourcePoint" />
            <mxPoint x="360" y="370" as="targetPoint" />
          </mxGeometry>
        </mxCell>
        <mxCell id="XuaTuY3ysy17-nEJgxoF-26" value="" style="endArrow=none;html=1;rounded=0;exitX=1;exitY=0.5;exitDx=0;exitDy=0;entryX=0.5;entryY=0.5;entryDx=0;entryDy=0;entryPerimeter=0;" parent="1" source="XuaTuY3ysy17-nEJgxoF-11" target="XuaTuY3ysy17-nEJgxoF-2" edge="1">
          <mxGeometry width="50" height="50" relative="1" as="geometry">
            <mxPoint x="477" y="385" as="sourcePoint" />
            <mxPoint x="655" y="350" as="targetPoint" />
          </mxGeometry>
        </mxCell>
        <mxCell id="XuaTuY3ysy17-nEJgxoF-28" value="" style="endArrow=none;html=1;rounded=0;entryX=0.5;entryY=0.5;entryDx=0;entryDy=0;entryPerimeter=0;exitX=1;exitY=0.5;exitDx=0;exitDy=0;" parent="1" source="XuaTuY3ysy17-nEJgxoF-12" target="XuaTuY3ysy17-nEJgxoF-4" edge="1">
          <mxGeometry width="50" height="50" relative="1" as="geometry">
            <mxPoint x="570" y="490" as="sourcePoint" />
            <mxPoint x="620" y="440" as="targetPoint" />
          </mxGeometry>
        </mxCell>
        <mxCell id="XuaTuY3ysy17-nEJgxoF-29" value="" style="endArrow=none;html=1;rounded=0;entryX=0.5;entryY=0.5;entryDx=0;entryDy=0;entryPerimeter=0;exitX=0.5;exitY=1;exitDx=0;exitDy=0;" parent="1" source="XuaTuY3ysy17-nEJgxoF-13" target="XuaTuY3ysy17-nEJgxoF-4" edge="1">
          <mxGeometry width="50" height="50" relative="1" as="geometry">
            <mxPoint x="484" y="450" as="sourcePoint" />
            <mxPoint x="655" y="450" as="targetPoint" />
          </mxGeometry>
        </mxCell>
        <mxCell id="XuaTuY3ysy17-nEJgxoF-33" value="Accept request" style="ellipse;whiteSpace=wrap;html=1;fillColor=#99CCFF;" parent="1" vertex="1">
          <mxGeometry x="440" y="275" width="70" height="30" as="geometry" />
        </mxCell>
        <mxCell id="XuaTuY3ysy17-nEJgxoF-34" value="Refuse request" style="ellipse;whiteSpace=wrap;html=1;fillColor=#99CCFF;" parent="1" vertex="1">
          <mxGeometry x="440" y="340" width="70" height="30" as="geometry" />
        </mxCell>
        <mxCell id="XuaTuY3ysy17-nEJgxoF-36" value="Extends" style="endArrow=block;endSize=7;endFill=0;html=1;rounded=0;exitX=0;exitY=0.5;exitDx=0;exitDy=0;entryX=1;entryY=0;entryDx=0;entryDy=0;" parent="1" source="XuaTuY3ysy17-nEJgxoF-33" target="XuaTuY3ysy17-nEJgxoF-13" edge="1">
          <mxGeometry width="160" relative="1" as="geometry">
            <mxPoint x="330" y="320" as="sourcePoint" />
            <mxPoint x="376" y="357" as="targetPoint" />
          </mxGeometry>
        </mxCell>
        <mxCell id="XuaTuY3ysy17-nEJgxoF-37" value="Extends" style="endArrow=block;endSize=7;endFill=0;html=1;rounded=0;entryX=1;entryY=1;entryDx=0;entryDy=0;exitX=0;exitY=0.5;exitDx=0;exitDy=0;" parent="1" source="XuaTuY3ysy17-nEJgxoF-34" target="XuaTuY3ysy17-nEJgxoF-13" edge="1">
          <mxGeometry width="160" relative="1" as="geometry">
            <mxPoint x="460" y="370" as="sourcePoint" />
            <mxPoint x="380" y="360" as="targetPoint" />
          </mxGeometry>
        </mxCell>
        <mxCell id="XuaTuY3ysy17-nEJgxoF-38" value="" style="endArrow=none;html=1;rounded=0;exitX=1;exitY=0.5;exitDx=0;exitDy=0;entryX=0.5;entryY=0.5;entryDx=0;entryDy=0;entryPerimeter=0;" parent="1" source="XuaTuY3ysy17-nEJgxoF-33" target="XuaTuY3ysy17-nEJgxoF-14" edge="1">
          <mxGeometry width="50" height="50" relative="1" as="geometry">
            <mxPoint x="400" y="340" as="sourcePoint" />
            <mxPoint x="655" y="340" as="targetPoint" />
          </mxGeometry>
        </mxCell>
        <mxCell id="XuaTuY3ysy17-nEJgxoF-39" value="" style="endArrow=none;html=1;rounded=0;exitX=1;exitY=0.5;exitDx=0;exitDy=0;entryX=0.5;entryY=0.5;entryDx=0;entryDy=0;entryPerimeter=0;" parent="1" source="XuaTuY3ysy17-nEJgxoF-34" target="XuaTuY3ysy17-nEJgxoF-14" edge="1">
          <mxGeometry width="50" height="50" relative="1" as="geometry">
            <mxPoint x="520" y="300" as="sourcePoint" />
            <mxPoint x="655" y="340" as="targetPoint" />
          </mxGeometry>
        </mxCell>
        <mxCell id="XuaTuY3ysy17-nEJgxoF-40" value="" style="endArrow=block;dashed=1;endFill=0;endSize=7;html=1;rounded=0;exitX=0.5;exitY=1;exitDx=0;exitDy=0;entryX=0.5;entryY=0;entryDx=0;entryDy=0;" parent="1" source="XuaTuY3ysy17-nEJgxoF-11" target="XuaTuY3ysy17-nEJgxoF-42" edge="1">
          <mxGeometry width="160" relative="1" as="geometry">
            <mxPoint x="420" y="270" as="sourcePoint" />
            <mxPoint x="580" y="270" as="targetPoint" />
          </mxGeometry>
        </mxCell>
        <mxCell id="XuaTuY3ysy17-nEJgxoF-41" value="&amp;lt;&amp;lt;include&amp;gt;&amp;gt;" style="edgeLabel;html=1;align=center;verticalAlign=middle;resizable=0;points=[];" parent="XuaTuY3ysy17-nEJgxoF-40" vertex="1" connectable="0">
          <mxGeometry relative="1" as="geometry">
            <mxPoint as="offset" />
          </mxGeometry>
        </mxCell>
        <mxCell id="XuaTuY3ysy17-nEJgxoF-42" value="Drop load" style="ellipse;whiteSpace=wrap;html=1;fillColor=#99CCFF;" parent="1" vertex="1">
          <mxGeometry x="414" y="230" width="90" height="30" as="geometry" />
        </mxCell>
        <mxCell id="XuaTuY3ysy17-nEJgxoF-44" value="" style="endArrow=none;html=1;rounded=0;exitX=1;exitY=0.5;exitDx=0;exitDy=0;entryX=0.5;entryY=0.5;entryDx=0;entryDy=0;entryPerimeter=0;" parent="1" source="XuaTuY3ysy17-nEJgxoF-42" target="XuaTuY3ysy17-nEJgxoF-2" edge="1">
          <mxGeometry width="50" height="50" relative="1" as="geometry">
            <mxPoint x="494" y="175" as="sourcePoint" />
            <mxPoint x="655" y="230" as="targetPoint" />
          </mxGeometry>
        </mxCell>
        <mxCell id="XuaTuY3ysy17-nEJgxoF-45" value="" style="endArrow=none;html=1;rounded=0;exitX=0.5;exitY=0.5;exitDx=0;exitDy=0;exitPerimeter=0;entryX=0;entryY=0.5;entryDx=0;entryDy=0;" parent="1" source="XuaTuY3ysy17-nEJgxoF-1" target="XuaTuY3ysy17-nEJgxoF-42" edge="1">
          <mxGeometry width="50" height="50" relative="1" as="geometry">
            <mxPoint x="145" y="340" as="sourcePoint" />
            <mxPoint x="294" y="340" as="targetPoint" />
          </mxGeometry>
        </mxCell>
        <mxCell id="XuaTuY3ysy17-nEJgxoF-46" value="" style="endArrow=none;html=1;rounded=0;entryX=0.5;entryY=0.5;entryDx=0;entryDy=0;entryPerimeter=0;" parent="1" source="XuaTuY3ysy17-nEJgxoF-33" target="XuaTuY3ysy17-nEJgxoF-2" edge="1">
          <mxGeometry width="50" height="50" relative="1" as="geometry">
            <mxPoint x="530" y="255" as="sourcePoint" />
            <mxPoint x="655" y="230" as="targetPoint" />
          </mxGeometry>
        </mxCell>
        <mxCell id="XuaTuY3ysy17-nEJgxoF-48" value="Stop/Resume" style="ellipse;whiteSpace=wrap;html=1;fillColor=#99CCFF;" parent="1" vertex="1">
          <mxGeometry x="432" y="90" width="86" height="40" as="geometry" />
        </mxCell>
        <mxCell id="XuaTuY3ysy17-nEJgxoF-49" value="" style="endArrow=none;html=1;rounded=0;exitX=0.5;exitY=0.5;exitDx=0;exitDy=0;exitPerimeter=0;entryX=0;entryY=0.5;entryDx=0;entryDy=0;" parent="1" source="XuaTuY3ysy17-nEJgxoF-3" target="XuaTuY3ysy17-nEJgxoF-48" edge="1">
          <mxGeometry width="50" height="50" relative="1" as="geometry">
            <mxPoint x="145" y="340" as="sourcePoint" />
            <mxPoint x="424" y="255" as="targetPoint" />
          </mxGeometry>
        </mxCell>
        <mxCell id="XuaTuY3ysy17-nEJgxoF-50" value="" style="endArrow=none;html=1;rounded=0;exitX=1;exitY=0.5;exitDx=0;exitDy=0;entryX=0.5;entryY=0.5;entryDx=0;entryDy=0;entryPerimeter=0;" parent="1" source="XuaTuY3ysy17-nEJgxoF-48" target="XuaTuY3ysy17-nEJgxoF-2" edge="1">
          <mxGeometry width="50" height="50" relative="1" as="geometry">
            <mxPoint x="155" y="150" as="sourcePoint" />
            <mxPoint x="430" y="95" as="targetPoint" />
          </mxGeometry>
        </mxCell>
        <mxCell id="XuaTuY3ysy17-nEJgxoF-51" value="" style="endArrow=none;html=1;rounded=0;exitX=1;exitY=1;exitDx=0;exitDy=0;entryX=0.5;entryY=0.5;entryDx=0;entryDy=0;entryPerimeter=0;" parent="1" source="XuaTuY3ysy17-nEJgxoF-42" target="XuaTuY3ysy17-nEJgxoF-4" edge="1">
          <mxGeometry width="50" height="50" relative="1" as="geometry">
            <mxPoint x="491" y="256" as="sourcePoint" />
            <mxPoint x="640" y="440" as="targetPoint" />
          </mxGeometry>
        </mxCell>
        <mxCell id="XuaTuY3ysy17-nEJgxoF-4" value="&lt;b&gt;ServiceAccessGUI&lt;/b&gt;" style="shape=umlActor;verticalLabelPosition=bottom;verticalAlign=top;html=1;outlineConnect=0;fillColor=#4066FF;" parent="1" vertex="1">
          <mxGeometry x="630" y="410" width="30" height="60" as="geometry" />
        </mxCell>
      </root>
    </mxGraphModel>
  </diagram>
</mxfile>
